# xmcd
#
# Track frame offsets:
#        150
#        14637
#        25217
#        55225
#
# Disc length: 742 seconds
#
# Revision: 0
# Processed by: cddbd v1.5.1PL2 Copyright (c) Steve Scherf et al.
# Submitted via: ExactAudioCopy v0.95b3
#
DISCID=2d02e404
DTITLE=Rpn Ron Clou - Lucky Star
DYEAR=2000
DGENRE=
TTITLE0=Lucky Star
TTITLE1=Here It Comes!
TTITLE2=Drive Me Down
TTITLE3=data
EXTD=
EXTT0=
EXTT1=
EXTT2=
EXTT3=
PLAYORDER=
